<svg xmlns="http://www.w3.org/2000/svg" version="1.1" xmlns:xlink="http://www.w3.org/1999/xlink" viewBox="0 0 6.0570014892878 4.783217318858726"><g transform="matrix(1,0,0,1,3.0198320692713243,4.522795930757466)"><rect width="6.0570014892878" height="6.0570014892878" x="-3.0198320692713243" y="-5.159688015972003" fill="#bfe4ff"></rect><g transform="matrix(1,0,0,1,0,0)"><path d=" M -2.5644908725681708 -2.012627829142974 L -1.859560163519272 -1.839345702425252 L -1.8596566115728002 -1.598345721724479 L -2.2916953963193816 -1.5015186156296623 L -1.8597350506536778 -1.4023457374201158 L -1.859831498707206 -1.1613457567193428 L -2.5648998763470328 -0.9906279109845093 L -2.5648150340758793 -1.202627894007596 L -2.0827822563241702 -1.2844349913339976 L -2.5647377955931785 -1.3956278785521985 L -2.564651752723848 -1.6106278613350458 L -2.086608569467622 -1.718436557376942 L -2.5645757148393242 -1.8006278461198875 L -2.5644908725681708 -2.012627829142974 M -2.1732026362526526 -2.5372596187414302 L -2.0698636237124255 -2.486801235025632 L -1.9711406990510814 -2.68898625956086 L -1.8372492828033085 -2.6236097450073474 L -1.9359722074646524 -2.42142472047212 L -1.8218499936158794 -2.365701114107717 L -1.7099640123330229 -2.5948441419143085 L -1.5688837952128862 -2.525957478928393 L -1.7667684130896244 -2.120688829748892 L -2.4002814899666713 -2.4300206603544363 L -2.202396872089933 -2.835289309533937 L -2.0613166549697963 -2.7664026465480216 L -2.1732026362526526 -2.5372596187414302 M -1.2534680221100247 -3.031523754292275 L -1.4365535741678812 -2.86128956081849 L -1.3860748490827344 -2.751194609463861 L -1.536937343978408 -2.6109216340414623 L -1.8287858220590045 -3.302223641735668 L -1.6632764829987026 -3.4561153526359694 L -0.9957364520953846 -3.11413390994997 L -1.1473312891992897 -2.973179997753676 L -1.2534680221100247 -3.031523754292275 M -1.3914933063976354 -3.1080091836061268 L -1.6024048986713155 -3.223232012266861 L -1.5020769798405806 -3.005187730747961 L -1.3914933063976354 -3.1080091836061268 M -0.5265098248105032 -3.6665866244001326 Q -0.535752325470326 -3.6070796821030093 -0.5804498767237034 -3.556734583911113 Q -0.6251474279770808 -3.5063894857192164 -0.7056994943345831 -3.476266992370615 L -0.7965547319703707 -3.442291621965797 L -0.7131924829358697 -3.219368461581081 L -0.8967762620762241 -3.1507171976703154 L -1.1437106552246412 -3.8110568114149577 L -0.8692716384484993 -3.913683445730541 Q -0.7896562240253864 -3.943455677528577 -0.7234175874122535 -3.9361966817555154 Q -0.6571789507991206 -3.928937685982454 -0.6105155305874818 -3.8898029799767606 Q -0.5638521103758429 -3.850668273971068 -0.5396840633868489 -3.786039290498188 Q -0.5172673241506807 -3.726093566697256 -0.5265098248105032 -3.6665866244001326 M -0.7270144502647615 -3.715986980385162 Q -0.7539845896582766 -3.7881091793331585 -0.8317267002126103 -3.7590374706362524 L -0.9047855510949963 -3.731717069692172 L -0.8511955338585312 -3.588409323730569 L -0.7781366829761454 -3.615729724674649 Q -0.7003945724218116 -3.6448014333715553 -0.7270144502647615 -3.715986980385162 M 0.0974976399085436 -3.3595652657279143 L -0.040399888677282 -3.6206864475763454 L -0.06139920504121271 -3.6208558944634532 L -0.0634971188815921 -3.3608643585290725 L -0.25949073827827907 -3.362445862808743 L -0.2538021642110966 -4.067422912169275 L 0.05518777657245588 -4.064929622258978 Q 0.1401850094740803 -4.064243765811161 0.19894505625037745 -4.03426866109329 Q 0.25770510302667465 -4.004293556375418 0.28728857808533576 -3.952553165929911 Q 0.31687205314399686 -3.9008127754844035 0.3163556435832881 -3.8368148589467097 Q 0.3157746828274907 -3.764817202841804 0.2758362136978418 -3.7106376985659244 Q 0.23589774456819285 -3.6564581942900443 0.15971463399380192 -3.6340721793876525 L 0.31649051056096417 -3.357798176762364 L 0.0974976399085436 -3.3595652657279143 M -0.06031797252347876 -3.754851532214249 L 0.036678869728963226 -3.7540688489738 Q 0.07667756756502181 -3.753746092998357 0.09683022557138649 -3.7725840964827633 Q 0.11698288357775116 -3.7914220999671695 0.11727336395564986 -3.8274209280196225 Q 0.11754770653477636 -3.861419821180272 0.09720571743182488 -3.881084598812765 Q 0.07686372832887328 -3.9007493764452583 0.03786499793871617 -3.901064063521315 L -0.05913184431372581 -3.9018467467617644 L -0.06031797252347876 -3.754851532214249 M 0.8056774229731347 -3.769596818543647 L 0.7662090569873296 -3.6615817821532883 L 0.9775428238380316 -3.5843610660941043 L 0.9264055496477277 -3.4444111493796394 L 0.7150717827970257 -3.521631865438823 L 0.6714849786213973 -3.402345694816427 L 0.910996581052193 -3.314828883282685 L 0.8571136814020069 -3.167364877080195 L 0.4335068865145997 -3.3221495123810483 L 0.6754651301667092 -3.984328648513248 L 1.0990719250541163 -3.829544013212395 L 1.0451890254039302 -3.682080007009905 L 0.8056774229731347 -3.769596818543647 M 1.7700634758652587 -3.3018474957417334 Q 1.8041621816324995 -3.213587775228924 1.7859195049224321 -3.123631092617503 Q 1.7676768282123647 -3.033674410006082 1.7003452104088166 -2.955729216158373 Q 1.6336672976324873 -2.878540771765496 1.5469387952601124 -2.847744394117387 Q 1.4602102928877376 -2.816948016469277 1.3672781346707947 -2.8371002860471948 Q 1.2743459764538516 -2.857252555625112 1.1911035364223177 -2.9291601086191927 L 0.9799704385241547 -3.1115438112132696 L 1.4408324827134886 -3.6450521768699184 L 1.6519655806116518 -3.4626684742758416 Q 1.7359647700980179 -3.3901072162545423 1.7700634758652587 -3.3018474957417334 M 1.4257285769903338 -3.017200385415991 Q 1.493533436556397 -3.020736063459374 1.5497520688972235 -3.085816516574937 Q 1.606624406265269 -3.1516537191453318 1.6005946717713933 -3.2196308645835847 Q 1.5945649372775175 -3.2876080100218372 1.5294844841619546 -3.343826642362664 L 1.47802552123337 -3.3882785842135497 L 1.2413843013801233 -3.1143352815643204 L 1.292843264308708 -3.069883339713434 Q 1.3579237174242706 -3.0136647073726075 1.4257285769903338 -3.017200385415991 M 2.224109322939303 -2.7814575967876563 L 1.6270587244296764 -2.406550164453625 L 1.522829140404896 -2.572538699642117 L 2.1198797389145225 -2.9474461319761485 L 2.224109322939303 -2.7814575967876563 M 2.243347723087175 -2.4037245109148317 Q 2.3332256634496944 -2.3823596838340584 2.3975589889220554 -2.316545754961309 Q 2.461892314394416 -2.25073182608856 2.4883167713471845 -2.1501448086620982 Q 2.521855505171853 -2.022476671159282 2.47653643206785 -1.917517480932823 Q 2.431217358963847 -1.8125582907063638 2.3207943471577908 -1.756667697010469 L 2.267183189301692 -1.9607432804430016 Q 2.3010429586762675 -1.9892830074546701 2.31284207461894 -2.0270193409142334 Q 2.3246411905616124 -2.064755674373797 2.3134616126200562 -2.1073117202080693 Q 2.296184083074015 -2.173080154679217 2.2389854210377598 -2.199928116636548 Q 2.181786759001505 -2.2267760785938786 2.1034449473520493 -2.2061954919287414 Q 2.024135952842724 -2.1853608239467506 1.9875178774716062 -2.1338669742546257 Q 1.9508998021004886 -2.082373124562501 1.9681773316465299 -2.016604690091353 Q 1.9793569095880859 -1.9740486442570808 2.008179473759946 -1.9469837261053662 Q 2.0370020379318063 -1.9199188079536516 2.0805168973468167 -1.911705586290267 L 2.1341280552029147 -1.7076300028577345 Q 2.0104928149204744 -1.7020329178750706 1.9194391047828325 -1.7711666424251797 Q 1.828385394645191 -1.8403003669752884 1.7948466608205227 -1.967968504478105 Q 1.7684222038677537 -2.068555521904566 1.7921025186435469 -2.1574908506109884 Q 1.8157828334193398 -2.2464261793174107 1.883555699215601 -2.309206261045312 Q 1.9513285650118621 -2.3719863427732135 2.0528827652981936 -2.3986648810428357 Q 2.1534697827246547 -2.4250893379956047 2.243347723087175 -2.4037245109148317 M 2.508247383665575 -0.8943101422904791 L 2.3534938605704916 -0.9139912776657405 L 2.3772121519201654 -1.1004891131905852 L 1.8325987917970823 -1.1697515703766015 L 1.8573263721403594 -1.3641854840088863 L 2.401939732263443 -1.29492302682287 L 2.425405701364716 -1.4794368428208544 L 2.5801592244598 -1.459755707445593 L 2.508247383665575 -0.8943101422904791" fill="#0e1425" fill-rule="nonzero"></path></g><g transform="matrix(1,0,0,1,0,0)"><g clip-path="url(#SvgjsClipPath1002)"><g clip-path="url(#be07455f8-36fe-403b-b10f-1567e1dad43ed03a355e-5f18-441d-84aa-87f5315d71ac)"><path d=" M -0.1087941517128157 -1.5639267498044056 C -0.07304275339055799 -1.528175351482148 -0.07304275339055799 -1.4702122863688483 -0.1087941517128157 -1.4344608880465903 L -0.634712195659288 -0.9085386728950868 C -0.6704635939815458 -0.8727872745728289 -0.7284308302998768 -0.8727872745728289 -0.7641780574171033 -0.9085386728950868 L -1.2900961013635757 -1.434452545636528 C -1.3258474996858336 -1.4702122863688483 -1.3258433284808022 -1.528175351482148 -1.2900961013635757 -1.563918407394343 L -0.764173886212072 -2.0898364513408154 C -0.7284224878898145 -2.1255920208681047 -0.6704635939815458 -2.1255920208681047 -0.6347080244542569 -2.0898364513408154 Z" fill="#5993ac" transform="matrix(1,0,0,1,0,0)" fill-rule="nonzero"></path></g><g clip-path="url(#be07455f8-36fe-403b-b10f-1567e1dad43ed03a355e-5f18-441d-84aa-87f5315d71ac)"><path d=" M -0.4700580482584248 -1.7136938664489818 L -0.4343024787311359 -1.7500417470906982 L -0.45599274489328034 -1.7705599046390808 L -0.4935085629437278 -1.7365604124299192 L -0.4940925316480932 -1.777592556321653 L -0.509334114832031 -1.7928341395055907 L -0.5280961950622858 -1.7752441678890978 L -0.5198872635609204 -1.7142820063583781 L -0.5808494250916398 -1.650383316485707 L -0.6013717538450534 -1.716042254881537 L -0.6336109975310561 -1.7201467206322196 L -0.684616492652345 -1.6791104055354549 L -0.6846081502422827 -1.78227681957167 L -0.6295107029854046 -1.834458594511752 L -0.6459202235780731 -1.8491036953762308 L -0.6834360416285206 -1.8186288714184178 L -0.6834402128335518 -1.8772468157216131 L -0.7109910220645064 -1.8772468157216131 L -0.7133352392920305 -1.8168686228952593 L -0.7531911033649709 -1.8584847354913583 L -0.7760618205509396 -1.8391470289668002 L -0.7121673018832996 -1.7793486336397806 L -0.7139192079963959 -1.7066612147664095 L -0.7244723567252854 -1.6931757089005992 L -0.7731252922089878 -1.7301075582466814 L -0.796575806894291 -1.707249354675806 L -0.8170897932376422 -1.655664062055183 L -0.8850971200660274 -1.7248393262922992 L -0.8762958774502341 -1.7424209554987298 L -0.8762958774502341 -1.7781806962310496 L -0.8774679860639962 -1.7910697197774008 L -0.8903695232254409 -1.799866791188163 L -0.9044348265905854 -1.78990178236867 L -0.90385085788622 -1.7559064613645399 L -0.910879338363761 -1.7471093899537777 L -0.9407785360272709 -1.7787688361404461 L -0.9518113733347462 -1.7683783644077729 L -0.9520741592517108 -1.7686453215297684 L -0.9562620491030172 -1.7641904745564665 L -0.9607085536662567 -1.7600109271152224 L -0.9604457677492924 -1.759743969993227 L -0.9708320682769345 -1.7487153038907826 L -0.939172622090266 -1.7188119350222417 L -0.947969693501028 -1.7117876257497318 L -0.9819691857101893 -1.7123674232490658 L -0.9919341945296822 -1.6983021198839214 L -0.9831412943239513 -1.6854089251325393 L -0.970248099572569 -1.6842284741087148 L -0.934488358840249 -1.6842284741087148 L -0.9169025584287873 -1.693025545519477 L -0.8477272941916713 -1.6250223898961227 L -0.8993167580173256 -1.6045042323477403 L -0.9221791327932319 -1.5810620600724996 L -0.8852431122421187 -1.532404953383766 L -0.8987244469028977 -1.5218559758599077 L -0.9714243793913622 -1.520095727336749 L -1.0312144323083197 -1.5839944172094202 L -1.0505521388328776 -1.5611237000234515 L -1.0089360262367786 -1.5212678359505112 L -1.0693100478581012 -1.5189277899280182 L -1.0693100478581012 -1.4913686382870013 L -1.0106962747599373 -1.4913686382870013 L -1.04117109871775 -1.4538528202365537 L -1.0265218266482403 -1.4374474708489164 L -0.9743442229131893 -1.4925407469007632 L -0.8711778088769742 -1.4925490893108257 L -0.912214123973739 -1.441543594189537 L -0.9081096582230563 -1.4093001792985027 L -0.8424548910322576 -1.3887820217501203 L -0.9063494096998977 -1.327819860219401 L -0.9673157424356482 -1.3360287917207665 L -0.9848973716420788 -1.3172708826955426 L -0.9696599596631723 -1.302025128306574 L -0.9286236445664076 -1.3014495020122707 L -0.9626273079806003 -1.2639211703467297 L -0.9421049792271865 -1.2422350753896165 L -0.9057612697905011 -1.2779948161219365 L -0.9045933323817703 -1.2398950293671236 L -0.8870075319703086 -1.2217169178412342 L -0.8717617775813398 -1.2469276810496959 L -0.8834912061290224 -1.3014495020122707 L -0.8125556933687478 -1.3706122526342932 L -0.8037627931630169 -1.3155148053774153 L -0.7861769927515552 -1.2914803219877466 L -0.712313294059391 -1.3336845744932422 L -0.7152498224013428 -1.243991152707744 L -0.7603864320437591 -1.1994468541797554 L -0.7515893606329972 -1.1630989735380386 L -0.7164177598100738 -1.201207102702914 L -0.7158337911057084 -1.162510833628642 L -0.6982521618992779 -1.1449292044222117 L -0.6818426413066093 -1.158414710288022 L -0.6777340043508954 -1.1982705743609623 L -0.6443226520511306 -1.1648592220611975 L -0.6314169436846547 -1.1877132544270415 L -0.6800782215784195 -1.2410629667758546 L -0.6765618957371333 -1.3284080001287977 L -0.6290768976621618 -1.2862037476233021 L -0.6056305541818898 -1.3102382310129705 L -0.5880447537704282 -1.370032455134959 L -0.5171134122151847 -1.298512973670319 L -0.5218018466702328 -1.2375508121395997 L -0.5106605580319467 -1.221132949136869 L -0.4965952546668023 -1.2352024237070445 L -0.49190682021175414 -1.2756505988944127 L -0.4655322907995927 -1.248099789663458 L -0.45743181062903804 -1.2549655931447827 L -0.45658505600770816 -1.254118838523453 L -0.45180902624700514 -1.2597416229054856 L -0.44618624186497235 -1.2645134814611578 L -0.4470329964863021 -1.2653602360824876 L -0.4401671930049773 -1.2734690586631046 L -0.46771800223593196 -1.2998352456652036 L -0.4272656558435325 -1.3045236801202518 L -0.41320035247838804 -1.3185973258954586 L -0.4296098730710566 -1.3297344433287135 L -0.4905803770118383 -1.3250460088736655 L -0.5620956872714472 -1.3959773504289088 L -0.5023056343544898 -1.4135631508403705 L -0.47826697975979016 -1.4370053231156112 L -0.5204754034703171 -1.484494492395614 L -0.4331303701173739 -1.4880108182369 L -0.37978900017862327 -1.4393537115481663 L -0.3569266254027167 -1.45225107750458 L -0.39034214890751273 -1.4856707722144071 L -0.35047794242451 -1.4897668955550276 L -0.3369966077637311 -1.5061805873527272 L -0.35457823697016144 -1.52377055896922 L -0.3932745060444335 -1.5243503564685543 L -0.35516220567452705 -1.5595219572914778 L -0.3915142575212748 -1.568323199907271 L -0.4360627272542945 -1.5231824190598235 L -0.5257519778347618 -1.5202458907178718 L -0.48354772532926604 -1.5941137606150668 L -0.5075780375139034 -1.6116953898214974 L -0.5626838271808439 -1.620496632437291 L -0.4935085629437278 -1.6914196315824717 L -0.43899508439121515 -1.6796985454448514 L -0.4137884923877847 -1.6949401286287893 L -0.431962432708643 -1.7125217578352196 Z M -0.8354222393496854 -1.4878523124457153 L -0.7738677667045382 -1.4866843750369845 L -0.8242851219164304 -1.435691393530789 L -0.8606246601480847 -1.448576245872109 Z M -0.7216985053795497 -1.3817535412725794 L -0.7726956580907761 -1.3571350891785454 L -0.7838369467290623 -1.3981672330702792 L -0.7299032656758839 -1.4462320286445849 L -0.7293151257664874 -1.443891982622092 Z M -0.6220442459795894 -1.3934746274101997 L -0.6460745581642269 -1.3565469492691489 L -0.6777340043508954 -1.3893743328645483 L -0.6777298331458642 -1.4497525256909023 C -0.6777298331458642 -1.4497525256909023 -0.621456106070193 -1.3928864875008033 -0.6220442459795896 -1.3934746274101997 M -0.7797324809783797 -1.5464785991589727 L -0.8266251679389234 -1.544714179430783 L -0.8576964742161953 -1.571681019957372 L -0.8207646248701133 -1.5951273634376442 Z M -0.6799238869922657 -1.6433590072131972 L -0.6406436492136285 -1.6685614280115966 L -0.6277504544622461 -1.6322218897799423 L -0.6787476071734725 -1.5818003633630189 Z M -0.7637484232988916 -1.6656248996696448 L -0.7367774115672713 -1.6345619358024353 L -0.7385418312954611 -1.5876692488418913 L -0.7871947667791636 -1.6286972215285938 Z M -0.5855420307517192 -1.4299768426380703 L -0.6418157578273904 -1.485666601009376 L -0.5814417362060676 -1.4856707722144071 L -0.5486101814056371 -1.4540071548227076 Z M -0.5738209446140988 -1.529626930832999 L -0.6359593859636115 -1.5372477224249679 L -0.6382994319861044 -1.5378358623343644 L -0.5902346364117986 -1.5917653721825118 L -0.5491983213150338 -1.5806282547492567 Z" fill="#ffffff" transform="matrix(1,0,0,1,0,0)" fill-rule="nonzero"></path></g><g clip-path="url(#be07455f8-36fe-403b-b10f-1567e1dad43ed03a355e-5f18-441d-84aa-87f5315d71ac)"><path d=" M 0.5854320152418351 -0.8697005828497548 C 0.6211792423590616 -0.8339491845274971 0.6211792423590616 -0.7759902906192284 0.5854320152418351 -0.7402388922969707 L 0.05951397129536273 -0.21431667714546743 C 0.023762572973105245 -0.17856110761817856 -0.03420466334522598 -0.17856110761817856 -0.06995189046245254 -0.21431667714546743 L -0.5958699344089249 -0.7402263786818772 C -0.6316213327311827 -0.7759902906192284 -0.6316171615261514 -0.8339491845274971 -0.5958699344089249 -0.8696964116447237 L -0.06994771925742116 -1.395614455591196 C -0.03419632093516367 -1.4313658539134537 0.023762572973105245 -1.4313658539134537 0.05951814250039389 -1.395614455591196 Z" fill="#97afba" transform="matrix(1,0,0,1,0,0)" fill-rule="nonzero"></path></g><g clip-path="url(#be07455f8-36fe-403b-b10f-1567e1dad43ed03a355e-5f18-441d-84aa-87f5315d71ac)"><path d=" M -0.3626370050904043 -0.9024487135495616 C -0.3626370050904043 -0.9024487135495616 -0.2602672912151449 -1.1028709440928073 -0.04326034946792112 -1.0058945983228658 C 0.17375493468936498 -0.9089182525529242 0.3498214990555413 -0.9929680339312341 0.37438572548417004 -1.0446868051128548 C 0.2679282306783526 -0.8571953101662724 0.0836735908359667 -0.9153794491462246 0.05091711772609764 -0.9153794491462246 C 0.01816064461622835 -0.9153794491462246 -0.23570306478651637 -1.0252907017178603 -0.3626370050904043 -0.9024487135495616" fill="#ffffff" transform="matrix(1,0,0,1,0,0)" fill-rule="nonzero"></path></g><g clip-path="url(#be07455f8-36fe-403b-b10f-1567e1dad43ed03a355e-5f18-441d-84aa-87f5315d71ac)"><path d=" M -0.3755635694820363 -0.7860804355896565 C -0.3755635694820363 -0.7860804355896565 -0.27319802681180816 -0.9865026661329026 -0.05618691385955299 -0.8895263203629609 C 0.16082837029773311 -0.7925499745930193 0.3368949346639094 -0.8765914135612667 0.36145916109253795 -0.9283185271529499 C 0.25499749508168934 -0.7408270322063673 0.07074285523930368 -0.7990111711863195 0.03799055333446577 -0.7990111711863195 C 0.005234080224596482 -0.7990111711863195 -0.24862962917814846 -0.9089182525529242 -0.3755635694820363 -0.7860804355896565" fill="#ffffff" transform="matrix(1,0,0,1,0,0)" fill-rule="nonzero"></path></g><g clip-path="url(#be07455f8-36fe-403b-b10f-1567e1dad43ed03a355e-5f18-441d-84aa-87f5315d71ac)"><path d=" M -0.3949596728770308 -0.6632426186263891 C -0.3949596728770308 -0.6632426186263891 -0.2925941302068027 -0.8636648491696346 -0.07558301725454775 -0.7666885033996933 C 0.14143226690273858 -0.6697121576297516 0.31749883126891487 -0.7537535965979991 0.3420630576975434 -0.8054807101896824 C 0.2356013916866948 -0.6179850440380683 0.051346751844309146 -0.6761733542230521 0.018594449939471236 -0.6761733542230521 C -0.014162023170398275 -0.6761733542230521 -0.26802573257314277 -0.7860804355896565 -0.3949596728770308 -0.6632426186263891" fill="#ffffff" transform="matrix(1,0,0,1,0,0)" fill-rule="nonzero"></path></g><g clip-path="url(#be07455f8-36fe-403b-b10f-1567e1dad43ed03a355e-5f18-441d-84aa-87f5315d71ac)"><path d=" M 0.5958725414348827 -2.260964308950073 C 0.6316197685521092 -2.2252129106278153 0.6316197685521092 -2.167241503104453 0.5958725414348827 -2.1314984471922576 L 0.06995449748841032 -1.6055804032457852 C 0.03419892796112123 -1.5698248337184963 -0.0237641371521784 -1.5698248337184963 -0.05951553547443611 -1.6055804032457852 L -0.5854294082158774 -2.1314901047821952 C -0.6211808065381352 -2.167241503104453 -0.6211808065381352 -2.2252045682177526 -0.5854294082158774 -2.2609559665400107 L -0.059511364269404954 -2.786878181691514 C -0.023759965947147466 -2.8226295800137717 0.03419892796112123 -2.8226295800137717 0.06995449748841032 -2.786878181691514 Z" fill="#e9d053" transform="matrix(1,0,0,1,0,0)" fill-rule="nonzero"></path></g><g clip-path="url(#be07455f8-36fe-403b-b10f-1567e1dad43ed03a355e-5f18-441d-84aa-87f5315d71ac)"><path d=" M 1.2900945371845025 -1.5667423132004532 C 1.3258459355067602 -1.5309867436731641 1.3258459355067602 -1.4730195073548333 1.2900945371845025 -1.4372722802376068 L 0.7641764932380299 -0.9113542362911344 C 0.7284250949157722 -0.8755986667638456 0.6704578585974412 -0.8755986667638456 0.6347106314802147 -0.9113542362911344 L 0.10879258753374232 -1.4372681090325756 C 0.07304118921148461 -1.4730195073548333 0.07304118921148461 -1.5309825724681332 0.10879258753374232 -1.5667339707903907 L 0.634714802685246 -2.0926561859418946 C 0.6704620298024724 -2.1284075842641523 0.7284250949157722 -2.1284075842641523 0.7641806644430611 -2.0926561859418946 Z" fill="#404f34" transform="matrix(1,0,0,1,0,0)" fill-rule="nonzero"></path></g><g clip-path="url(#be07455f8-36fe-403b-b10f-1567e1dad43ed03a355e-5f18-441d-84aa-87f5315d71ac)"><path d=" M 0.8708592331155316 -1.3214003756764123 C 0.8708592331155316 -1.3214003756764123 0.6778116930674147 -1.1403867621432549 0.46188926462829816 -1.432546304937278 C 0.412239411142143 -1.5416691997580203 0.3945660154250268 -1.6344576556766552 0.3945660154250268 -1.6344576556766552 C 0.3945660154250268 -1.6344576556766552 0.5319863651773051 -1.4010328509267007 0.6400914859704394 -1.3383146120778537 C 0.7481924355585425 -1.2755922020239758 0.8511294333180426 -1.3240449196661814 0.8708592331155316 -1.3214003756764123" fill="#ffffff" transform="matrix(1,0,0,1,0,0)" fill-rule="nonzero"></path></g><g clip-path="url(#be07455f8-36fe-403b-b10f-1567e1dad43ed03a355e-5f18-441d-84aa-87f5315d71ac)"><path d=" M 0.8938300592222483 -1.4026929905291112 C 0.8938300592222483 -1.4026929905291112 0.9188531182043072 -1.5741170036955823 0.7624412719450584 -1.6212307645227788 C 0.6060419393009036 -1.668340354144944 0.5028838676747509 -1.5958072698577268 0.40239953847358567 -1.6816089573491328 C 0.53549851981356 -1.651693074865498 0.6248916148368133 -1.7039791299313598 0.6248916148368133 -1.7039791299313598 C 0.6248916148368133 -1.7039791299313598 0.9596308185891385 -1.7132934307659884 0.8938300592222483 -1.4026929905291112" fill="#ffffff" transform="matrix(1,0,0,1,0,0)" fill-rule="nonzero"></path></g><g clip-path="url(#be07455f8-36fe-403b-b10f-1567e1dad43ed03a355e-5f18-441d-84aa-87f5315d71ac)"><path d=" M 1.0150285926082616 -1.422581296117785 C 1.0150285926082616 -1.422581296117785 0.7931204849493994 -1.1912003818331094 0.47939581214416704 -1.5929249671811803 C 0.8312494701394306 -1.3106470091060263 1.0150285926082616 -1.422581296117785 1.0150285926082616 -1.422581296117785" fill="#ffffff" transform="matrix(1,0,0,1,0,0)" fill-rule="nonzero"></path></g><g clip-path="url(#be07455f8-36fe-403b-b10f-1567e1dad43ed03a355e-5f18-441d-84aa-87f5315d71ac)"><path d=" M -0.11908868572977216 -2.412087067229783 L -0.09448274725083161 -2.558262776342512 L 0.01042305928338605 -2.440543027952504 L 0.11144964513860489 -2.5492112614248477 L 0.1321680205284841 -2.4043286258717855 L 0.27204103883909747 -2.4508917876348657 L 0.21894159879215547 -2.3202371324431637 L 0.36011186186746635 -2.280139338478415 L 0.25520605533324847 -2.190888064426222 L 0.3575215435431023 -2.0938616641959062 L 0.21894159879215547 -2.0718710712715165 L 0.27204103883909747 -1.930871827602484 L 0.11144964513860489 -1.9851976019285935 L 0.10108420063611878 -1.8377288192561987 L -0.0012312875737354734 -1.9347510482814831 L -0.08541037630801163 -1.835142672136866 L -0.11779144096507466 -1.9735557686865657 L -0.251190749067294 -1.930871827602484 L -0.20456501922874581 -2.073168316036214 L -0.34702835586372305 -2.0886851987522097 L -0.24601011241856652 -2.1895908196615244 L -0.3586868739258756 -2.2943714900448064 L -0.19938438258001834 -2.324124695532225 L -0.2628492671294467 -2.4599516449625924 Z" fill="#e9d053" transform="matrix(1,0,0,1,0,0)" fill-rule="nonzero"></path></g><g clip-path="url(#be07455f8-36fe-403b-b10f-1567e1dad43ed03a355e-5f18-441d-84aa-87f5315d71ac)"><path d=" M -0.11908868572977216 -2.412087067229783 L -0.09448274725083161 -2.558262776342512 L 0.01042305928338605 -2.440543027952504 L 0.11144964513860489 -2.5492112614248477 L 0.1321680205284841 -2.4043286258717855 L 0.27204103883909747 -2.4508917876348657 L 0.21894159879215547 -2.3202371324431637 L 0.36011186186746635 -2.280139338478415 L 0.25520605533324847 -2.190888064426222 L 0.3575215435431023 -2.0938616641959062 L 0.21894159879215547 -2.0718710712715165 L 0.27204103883909747 -1.930871827602484 L 0.11144964513860489 -1.9851976019285935 L 0.10108420063611878 -1.8377288192561987 L -0.0012312875737354734 -1.9347510482814831 L -0.08541037630801163 -1.835142672136866 L -0.11779144096507466 -1.9735557686865657 L -0.251190749067294 -1.930871827602484 L -0.20456501922874581 -2.073168316036214 L -0.34702835586372305 -2.0886851987522097 L -0.24601011241856652 -2.1895908196615244 L -0.3586868739258756 -2.2943714900448064 L -0.19938438258001834 -2.324124695532225 L -0.2628492671294467 -2.4599516449625924 Z" fill="none" transform="matrix(1,0,0,1,0,0)" fill-rule="nonzero" stroke-dasharray="none" stroke-miterlimit="4" stroke-linejoin="miter" stroke-linecap="butt" stroke-width="0.051752140821870386" stroke="#ffffff"></path></g><g clip-path="url(#be07455f8-36fe-403b-b10f-1567e1dad43ed03a355e-5f18-441d-84aa-87f5315d71ac)"><path d=" M 0.13797433793188874 -2.3289883205985826 C 0.21129160876496833 -2.255662707355441 0.21129160876496833 -2.136791706376827 0.13797433793188874 -2.063474435543748 C 0.0646528958937782 -1.990148822300606 -0.0542181050848356 -1.990148822300606 -0.12753954712294613 -2.063474435543748 C -0.20086098916105666 -2.136791706376827 -0.20086098916105666 -2.255662707355441 -0.12753954712294613 -2.3289883205985826 C -0.0542181050848356 -2.402301420226631 0.0646528958937782 -2.402301420226631 0.13797433793188874 -2.3289883205985826" fill="#e9d053" transform="matrix(1,0,0,1,0,0)" fill-rule="nonzero"></path></g><g clip-path="url(#be07455f8-36fe-403b-b10f-1567e1dad43ed03a355e-5f18-441d-84aa-87f5315d71ac)"><path d=" M 0.13797433793188874 -2.3289883205985826 C 0.21129160876496833 -2.255662707355441 0.21129160876496833 -2.136791706376827 0.13797433793188874 -2.063474435543748 C 0.0646528958937782 -1.990148822300606 -0.0542181050848356 -1.990148822300606 -0.12753954712294613 -2.063474435543748 C -0.20086098916105666 -2.136791706376827 -0.20086098916105666 -2.255662707355441 -0.12753954712294613 -2.3289883205985826 C -0.0542181050848356 -2.402301420226631 0.0646528958937782 -2.402301420226631 0.13797433793188874 -2.3289883205985826 Z" fill="none" transform="matrix(1,0,0,1,0,0)" fill-rule="nonzero" stroke-dasharray="none" stroke-miterlimit="4" stroke-linejoin="miter" stroke-linecap="butt" stroke-width="0.04313026002241797" stroke="#ffffff"></path></g></g></g></g><defs><clipPath id="SvgjsClipPath1002"><path d=" M -1.3169080859261961 -2.813691730433207 h 2.6338161718523923 v 2.626191730433207 h -2.6338161718523923 Z"></path></clipPath><clipPath id="be07455f8-36fe-403b-b10f-1567e1dad43ed03a355e-5f18-441d-84aa-87f5315d71ac"><path d=" M -1.3210798123351928 -2.8178618926631316 L 1.321086590566182 -2.8178618926631316 L 1.321086590566182 -0.1833287949688187 L -1.3210798123351928 -0.1833287949688187 Z"></path></clipPath></defs></svg>